# xmcd
#
# Track frame offsets:
#	300
#	32434
#	62302
#	94022
#	122065
#	158678
#	191478
#	226521
#	255129
#	278831
#	309208
#
# Disc length: 4579 seconds
#
# Revision: 0
# Processed by: cddbd v1.5.2PL0 Copyright (c) Steve Scherf et al.
# Submitted via: audiograbber 1.83.01
#
DISCID=7311df0b
DTITLE=CDPool - Dance October 09 CD1
DYEAR=2009
DGENRE=Dance
TTITLE0=Alexandra Burke Ft Flo Rida - Bad Boys (Moto Blanco Club Mix)
TTITLE1=Hannah - Shadow On The Wall (Riffs and Rays Club Mix)
TTITLE2=The Saturdays - Forever Is Over (Buzz Junkies Club Mix)
TTITLE3=Bandito - Rockin' At The Disco (Digital Dog Club Mix)
TTITLE4=Whitney Houston - Million Dollar Bill (Freemasons Club Mix)
TTITLE5=Daniel Merriweather Ft Adele - Water and A Flame (Buzz Junkies Club Mix)
TTITLE6=Eva Simons - Silly Boy (Dave Aude Remix)
TTITLE7=Jonas Brothers - Fly With Me (Digital Dog Club Mix)
TTITLE8=David Jordan - (Don't Wanna) Hear You Say (Wideboys Stadium Club Mix)
TTITLE9=Scarlette Fever - Lovestruck (Riffs and Rays Club Mix)
TTITLE10=Carmen Reece - Right Here (Dave Aude Extended Mix)
EXTD=
EXTT0=
EXTT1=
EXTT2=
EXTT3=
EXTT4=
EXTT5=
EXTT6=
EXTT7=
EXTT8=
EXTT9=
EXTT10=
PLAYORDER=
